<svg xmlns="http://www.w3.org/2000/svg" fill="none" viewBox="0 0 20 20"><path fill="currentColor" d="M11.928 5.488a.833.833 0 0 0 0 1.667c.46 0 .833.373.833.833a.833.833 0 1 0 1.667 0 2.5 2.5 0 0 0-2.5-2.5Z"/><path fill="currentColor" fill-rule="evenodd" d="M5.446 14.47A7.5 7.5 0 1 0 16.053 3.863 7.5 7.5 0 0 0 5.446 14.47Zm1.179-1.179a5.833 5.833 0 1 0 8.25-8.25 5.833 5.833 0 0 0-8.25 8.25Z" clip-rule="evenodd"/><path fill="currentColor" d="M5.475 15.62a8.458 8.458 0 0 1-1.178-1.18L1.91 16.828a.833.833 0 1 0 1.178 1.178l2.386-2.386Z"/></svg>